<svg width="35" height="54" viewBox="0 0 35 54" fill="none" xmlns="http://www.w3.org/2000/svg">
<rect y="10" width="35" height="35" rx="7" fill="#160647"/>
<path d="M23.532 27.04C24.996 27.352 26.172 28.084 27.06 29.236C27.948 30.364 28.392 31.66 28.392 33.124C28.392 35.236 27.648 36.916 26.16 38.164C24.696 39.388 22.644 40 20.004 40H8.232V14.728H19.608C22.176 14.728 24.18 15.316 25.62 16.492C27.084 17.668 27.816 19.264 27.816 21.28C27.816 22.768 27.42 24.004 26.628 24.988C25.86 25.972 24.828 26.656 23.532 27.04ZM14.388 24.952H18.42C19.428 24.952 20.196 24.736 20.724 24.304C21.276 23.848 21.552 23.188 21.552 22.324C21.552 21.46 21.276 20.8 20.724 20.344C20.196 19.888 19.428 19.66 18.42 19.66H14.388V24.952ZM18.924 35.032C19.956 35.032 20.748 34.804 21.3 34.348C21.876 33.868 22.164 33.184 22.164 32.296C22.164 31.408 21.864 30.712 21.264 30.208C20.688 29.704 19.884 29.452 18.852 29.452H14.388V35.032H18.924Z" fill="white"/>
</svg>
