<?xml version="1.0" encoding="utf-8"?>
<!-- Generator: Adobe Illustrator 26.3.1, SVG Export Plug-In . SVG Version: 6.00 Build 0)  -->
<svg version="1.1" id="Layer_1" xmlns="http://www.w3.org/2000/svg" xmlns:xlink="http://www.w3.org/1999/xlink" x="0px" y="0px"
	 viewBox="0 0 24 24" style="enable-background:new 0 0 24 24;" xml:space="preserve">
<style type="text/css">
	.st0{fill:#47BEB9;}
</style>
<path class="st0" d="M11.8,13.8h5.3c0.3,0,0.6-0.1,0.8-0.3c0.2-0.2,0.3-0.5,0.3-0.8c0-0.3-0.1-0.6-0.3-0.8c-0.2-0.2-0.5-0.3-0.8-0.3
	h-3.2L11.8,13.8z M6.4,13.8h1.5c0.2,0,0.3,0,0.5-0.1c0.1-0.1,0.3-0.1,0.4-0.3l5.7-5.6c0.1-0.1,0.2-0.3,0.2-0.4
	c0-0.1-0.1-0.3-0.2-0.4l-1.9-1.9c-0.1-0.1-0.2-0.2-0.4-0.2c-0.1,0-0.3,0.1-0.4,0.2l-5.6,5.7C6,10.9,5.9,11,5.9,11.2
	c0,0.1-0.1,0.3-0.1,0.4v1.5c0,0.2,0.1,0.3,0.2,0.4C6.1,13.7,6.2,13.8,6.4,13.8z M1.7,19.2V3.8c0-0.7,0.2-1.3,0.7-1.7
	c0.5-0.5,1.1-0.7,1.7-0.7h15.7c0.7,0,1.3,0.2,1.7,0.7c0.5,0.5,0.7,1.1,0.7,1.7v11.6c0,0.7-0.2,1.3-0.7,1.7c-0.5,0.5-1.1,0.7-1.7,0.7
	h-14L3.8,20c-0.4,0.4-0.8,0.5-1.3,0.3C1.9,20.1,1.7,19.7,1.7,19.2z"/>
</svg>
