<svg width="154" height="30" viewBox="0 0 154 30" fill="none" xmlns="http://www.w3.org/2000/svg">
<path d="M15.532 16.04C16.996 16.352 18.172 17.084 19.06 18.236C19.948 19.364 20.392 20.66 20.392 22.124C20.392 24.236 19.648 25.916 18.16 27.164C16.696 28.388 14.644 29 12.004 29H0.232V3.728H11.608C14.176 3.728 16.18 4.316 17.62 5.492C19.084 6.668 19.816 8.264 19.816 10.28C19.816 11.768 19.42 13.004 18.628 13.988C17.86 14.972 16.828 15.656 15.532 16.04ZM6.388 13.952H10.42C11.428 13.952 12.196 13.736 12.724 13.304C13.276 12.848 13.552 12.188 13.552 11.324C13.552 10.46 13.276 9.8 12.724 9.344C12.196 8.888 11.428 8.66 10.42 8.66H6.388V13.952ZM10.924 24.032C11.956 24.032 12.748 23.804 13.3 23.348C13.876 22.868 14.164 22.184 14.164 21.296C14.164 20.408 13.864 19.712 13.264 19.208C12.688 18.704 11.884 18.452 10.852 18.452H6.388V24.032H10.924ZM22.7385 18.92C22.7385 16.856 23.1225 15.044 23.8905 13.484C24.6825 11.924 25.7505 10.724 27.0945 9.884C28.4385 9.044 29.9385 8.624 31.5945 8.624C32.9145 8.624 34.1145 8.9 35.1945 9.452C36.2985 10.004 37.1625 10.748 37.7865 11.684V2.36H43.9425V29H37.7865V26.12C37.2105 27.08 36.3825 27.848 35.3025 28.424C34.2465 29 33.0105 29.288 31.5945 29.288C29.9385 29.288 28.4385 28.868 27.0945 28.028C25.7505 27.164 24.6825 25.952 23.8905 24.392C23.1225 22.808 22.7385 20.984 22.7385 18.92ZM37.7865 18.956C37.7865 17.42 37.3545 16.208 36.4905 15.32C35.6505 14.432 34.6185 13.988 33.3945 13.988C32.1705 13.988 31.1265 14.432 30.2625 15.32C29.4225 16.184 29.0025 17.384 29.0025 18.92C29.0025 20.456 29.4225 21.68 30.2625 22.592C31.1265 23.48 32.1705 23.924 33.3945 23.924C34.6185 23.924 35.6505 23.48 36.4905 22.592C37.3545 21.704 37.7865 20.492 37.7865 18.956ZM67.3321 18.632C67.3321 19.208 67.2961 19.808 67.2241 20.432H53.2921C53.3881 21.68 53.7841 22.64 54.4801 23.312C55.2001 23.96 56.0761 24.284 57.1081 24.284C58.6441 24.284 59.7121 23.636 60.3121 22.34H66.8641C66.5281 23.66 65.9161 24.848 65.0281 25.904C64.1641 26.96 63.0721 27.788 61.7521 28.388C60.4321 28.988 58.9561 29.288 57.3241 29.288C55.3561 29.288 53.6041 28.868 52.0681 28.028C50.5321 27.188 49.3321 25.988 48.4681 24.428C47.6041 22.868 47.1721 21.044 47.1721 18.956C47.1721 16.868 47.5921 15.044 48.4321 13.484C49.2961 11.924 50.4961 10.724 52.0321 9.884C53.5681 9.044 55.3321 8.624 57.3241 8.624C59.2681 8.624 60.9961 9.032 62.5081 9.848C64.0201 10.664 65.1961 11.828 66.0361 13.34C66.9001 14.852 67.3321 16.616 67.3321 18.632ZM61.0321 17.012C61.0321 15.956 60.6721 15.116 59.9521 14.492C59.2321 13.868 58.3321 13.556 57.2521 13.556C56.2201 13.556 55.3441 13.856 54.6241 14.456C53.9281 15.056 53.4961 15.908 53.3281 17.012H61.0321ZM78.7517 29.288C76.9997 29.288 75.4397 28.988 74.0717 28.388C72.7037 27.788 71.6237 26.972 70.8317 25.94C70.0397 24.884 69.5957 23.708 69.4997 22.412H75.5837C75.6557 23.108 75.9797 23.672 76.5557 24.104C77.1317 24.536 77.8397 24.752 78.6797 24.752C79.4477 24.752 80.0357 24.608 80.4437 24.32C80.8757 24.008 81.0917 23.612 81.0917 23.132C81.0917 22.556 80.7917 22.136 80.1917 21.872C79.5917 21.584 78.6197 21.272 77.2757 20.936C75.8357 20.6 74.6357 20.252 73.6757 19.892C72.7157 19.508 71.8877 18.92 71.1917 18.128C70.4957 17.312 70.1477 16.22 70.1477 14.852C70.1477 13.7 70.4597 12.656 71.0837 11.72C71.7317 10.76 72.6677 10.004 73.8917 9.452C75.1397 8.9 76.6157 8.624 78.3197 8.624C80.8397 8.624 82.8197 9.248 84.2597 10.496C85.7237 11.744 86.5637 13.4 86.7797 15.464H81.0917C80.9957 14.768 80.6837 14.216 80.1557 13.808C79.6517 13.4 78.9797 13.196 78.1397 13.196C77.4197 13.196 76.8677 13.34 76.4837 13.628C76.0997 13.892 75.9077 14.264 75.9077 14.744C75.9077 15.32 76.2077 15.752 76.8077 16.04C77.4317 16.328 78.3917 16.616 79.6877 16.904C81.1757 17.288 82.3877 17.672 83.3237 18.056C84.2597 18.416 85.0757 19.016 85.7717 19.856C86.4917 20.672 86.8637 21.776 86.8877 23.168C86.8877 24.344 86.5517 25.4 85.8797 26.336C85.2317 27.248 84.2837 27.968 83.0357 28.496C81.8117 29.024 80.3837 29.288 78.7517 29.288ZM89.4299 18.956C89.4299 16.868 89.8499 15.044 90.6899 13.484C91.5539 11.924 92.7419 10.724 94.2539 9.884C95.7899 9.044 97.5419 8.624 99.5099 8.624C102.03 8.624 104.13 9.284 105.81 10.604C107.514 11.924 108.63 13.784 109.158 16.184H102.606C102.054 14.648 100.986 13.88 99.4019 13.88C98.2739 13.88 97.3739 14.324 96.7019 15.212C96.0299 16.076 95.6939 17.324 95.6939 18.956C95.6939 20.588 96.0299 21.848 96.7019 22.736C97.3739 23.6 98.2739 24.032 99.4019 24.032C100.986 24.032 102.054 23.264 102.606 21.728H109.158C108.63 24.08 107.514 25.928 105.81 27.272C104.106 28.616 102.006 29.288 99.5099 29.288C97.5419 29.288 95.7899 28.868 94.2539 28.028C92.7419 27.188 91.5539 25.988 90.6899 24.428C89.8499 22.868 89.4299 21.044 89.4299 18.956ZM121.387 18.92C121.387 16.856 121.771 15.044 122.539 13.484C123.331 11.924 124.399 10.724 125.743 9.884C127.087 9.044 128.587 8.624 130.243 8.624C131.659 8.624 132.895 8.912 133.951 9.488C135.031 10.064 135.859 10.82 136.435 11.756V8.912H142.591V29H136.435V26.156C135.835 27.092 134.995 27.848 133.915 28.424C132.859 29 131.623 29.288 130.207 29.288C128.575 29.288 127.087 28.868 125.743 28.028C124.399 27.164 123.331 25.952 122.539 24.392C121.771 22.808 121.387 20.984 121.387 18.92ZM136.435 18.956C136.435 17.42 136.003 16.208 135.139 15.32C134.299 14.432 133.267 13.988 132.043 13.988C130.819 13.988 129.775 14.432 128.911 15.32C128.071 16.184 127.651 17.384 127.651 18.92C127.651 20.456 128.071 21.68 128.911 22.592C129.775 23.48 130.819 23.924 132.043 23.924C133.267 23.924 134.299 23.48 135.139 22.592C136.003 21.704 136.435 20.492 136.435 18.956ZM150.141 6.824C149.061 6.824 148.173 6.512 147.477 5.888C146.805 5.24 146.469 4.448 146.469 3.512C146.469 2.552 146.805 1.76 147.477 1.136C148.173 0.487998 149.061 0.163998 150.141 0.163998C151.197 0.163998 152.061 0.487998 152.733 1.136C153.429 1.76 153.777 2.552 153.777 3.512C153.777 4.448 153.429 5.24 152.733 5.888C152.061 6.512 151.197 6.824 150.141 6.824ZM153.201 8.912V29H147.045V8.912H153.201Z" fill="#160647"/>
<path d="M115.331 29.288C114.251 29.288 113.363 28.976 112.667 28.352C111.995 27.704 111.659 26.912 111.659 25.976C111.659 25.016 111.995 24.212 112.667 23.564C113.363 22.916 114.251 22.592 115.331 22.592C116.387 22.592 117.251 22.916 117.923 23.564C118.619 24.212 118.967 25.016 118.967 25.976C118.967 26.912 118.619 27.704 117.923 28.352C117.251 28.976 116.387 29.288 115.331 29.288Z" fill="#47BEB9"/>
</svg>
