<svg width="97" height="25" viewBox="0 0 97 25" fill="none" xmlns="http://www.w3.org/2000/svg">
<path d="M19.56 16.4C19.56 15.2533 19.7733 14.2467 20.2 13.38C20.64 12.5133 21.2333 11.8467 21.98 11.38C22.7267 10.9133 23.56 10.68 24.48 10.68C25.2133 10.68 25.88 10.8333 26.48 11.14C27.0933 11.4467 27.5733 11.86 27.92 12.38V7.2H31.34V22H27.92V20.4C27.6 20.9333 27.14 21.36 26.54 21.68C25.9533 22 25.2667 22.16 24.48 22.16C23.56 22.16 22.7267 21.9267 21.98 21.46C21.2333 20.98 20.64 20.3067 20.2 19.44C19.7733 18.56 19.56 17.5467 19.56 16.4ZM27.92 16.42C27.92 15.5667 27.68 14.8933 27.2 14.4C26.7333 13.9067 26.16 13.66 25.48 13.66C24.8 13.66 24.22 13.9067 23.74 14.4C23.2733 14.88 23.04 15.5467 23.04 16.4C23.04 17.2533 23.2733 17.9333 23.74 18.44C24.22 18.9333 24.8 19.18 25.48 19.18C26.16 19.18 26.7333 18.9333 27.2 18.44C27.68 17.9467 27.92 17.2733 27.92 16.42ZM44.3342 16.24C44.3342 16.56 44.3142 16.8933 44.2742 17.24H36.5342C36.5876 17.9333 36.8076 18.4667 37.1942 18.84C37.5942 19.2 38.0809 19.38 38.6542 19.38C39.5076 19.38 40.1009 19.02 40.4342 18.3H44.0742C43.8876 19.0333 43.5476 19.6933 43.0542 20.28C42.5742 20.8667 41.9676 21.3267 41.2342 21.66C40.5009 21.9933 39.6809 22.16 38.7742 22.16C37.6809 22.16 36.7076 21.9267 35.8542 21.46C35.0009 20.9933 34.3342 20.3267 33.8542 19.46C33.3742 18.5933 33.1342 17.58 33.1342 16.42C33.1342 15.26 33.3676 14.2467 33.8342 13.38C34.3142 12.5133 34.9809 11.8467 35.8342 11.38C36.6876 10.9133 37.6676 10.68 38.7742 10.68C39.8542 10.68 40.8142 10.9067 41.6542 11.36C42.4942 11.8133 43.1476 12.46 43.6142 13.3C44.0942 14.14 44.3342 15.12 44.3342 16.24ZM40.8342 15.34C40.8342 14.7533 40.6342 14.2867 40.2342 13.94C39.8342 13.5933 39.3342 13.42 38.7342 13.42C38.1609 13.42 37.6742 13.5867 37.2742 13.92C36.8876 14.2533 36.6476 14.7267 36.5542 15.34H40.8342ZM50.6784 22.16C49.7051 22.16 48.8384 21.9933 48.0784 21.66C47.3184 21.3267 46.7184 20.8733 46.2784 20.3C45.8384 19.7133 45.5918 19.06 45.5384 18.34H48.9184C48.9584 18.7267 49.1384 19.04 49.4584 19.28C49.7784 19.52 50.1718 19.64 50.6384 19.64C51.0651 19.64 51.3918 19.56 51.6184 19.4C51.8584 19.2267 51.9784 19.0067 51.9784 18.74C51.9784 18.42 51.8118 18.1867 51.4784 18.04C51.1451 17.88 50.6051 17.7067 49.8584 17.52C49.0584 17.3333 48.3918 17.14 47.8584 16.94C47.3251 16.7267 46.8651 16.4 46.4784 15.96C46.0918 15.5067 45.8984 14.9 45.8984 14.14C45.8984 13.5 46.0718 12.92 46.4184 12.4C46.7784 11.8667 47.2984 11.4467 47.9784 11.14C48.6718 10.8333 49.4918 10.68 50.4384 10.68C51.8384 10.68 52.9384 11.0267 53.7384 11.72C54.5518 12.4133 55.0184 13.3333 55.1384 14.48H51.9784C51.9251 14.0933 51.7518 13.7867 51.4584 13.56C51.1784 13.3333 50.8051 13.22 50.3384 13.22C49.9384 13.22 49.6318 13.3 49.4184 13.46C49.2051 13.6067 49.0984 13.8133 49.0984 14.08C49.0984 14.4 49.2651 14.64 49.5984 14.8C49.9451 14.96 50.4784 15.12 51.1984 15.28C52.0251 15.4933 52.6984 15.7067 53.2184 15.92C53.7384 16.12 54.1918 16.4533 54.5784 16.92C54.9784 17.3733 55.1851 17.9867 55.1984 18.76C55.1984 19.4133 55.0118 20 54.6384 20.52C54.2784 21.0267 53.7518 21.4267 53.0584 21.72C52.3784 22.0133 51.5851 22.16 50.6784 22.16ZM56.6108 16.42C56.6108 15.26 56.8441 14.2467 57.3108 13.38C57.7908 12.5133 58.4508 11.8467 59.2908 11.38C60.1441 10.9133 61.1174 10.68 62.2108 10.68C63.6108 10.68 64.7774 11.0467 65.7108 11.78C66.6574 12.5133 67.2774 13.5467 67.5708 14.88H63.9308C63.6241 14.0267 63.0308 13.6 62.1508 13.6C61.5241 13.6 61.0241 13.8467 60.6508 14.34C60.2774 14.82 60.0908 15.5133 60.0908 16.42C60.0908 17.3267 60.2774 18.0267 60.6508 18.52C61.0241 19 61.5241 19.24 62.1508 19.24C63.0308 19.24 63.6241 18.8133 63.9308 17.96H67.5708C67.2774 19.2667 66.6574 20.2933 65.7108 21.04C64.7641 21.7867 63.5974 22.16 62.2108 22.16C61.1174 22.16 60.1441 21.9267 59.2908 21.46C58.4508 20.9933 57.7908 20.3267 57.3108 19.46C56.8441 18.5933 56.6108 17.58 56.6108 16.42ZM74.3647 16.4C74.3647 15.2533 74.578 14.2467 75.0047 13.38C75.4447 12.5133 76.038 11.8467 76.7847 11.38C77.5314 10.9133 78.3647 10.68 79.2847 10.68C80.0714 10.68 80.758 10.84 81.3447 11.16C81.9447 11.48 82.4047 11.9 82.7247 12.42V10.84H86.1447V22H82.7247V20.42C82.3914 20.94 81.9247 21.36 81.3247 21.68C80.738 22 80.0514 22.16 79.2647 22.16C78.358 22.16 77.5314 21.9267 76.7847 21.46C76.038 20.98 75.4447 20.3067 75.0047 19.44C74.578 18.56 74.3647 17.5467 74.3647 16.4ZM82.7247 16.42C82.7247 15.5667 82.4847 14.8933 82.0047 14.4C81.538 13.9067 80.9647 13.66 80.2847 13.66C79.6047 13.66 79.0247 13.9067 78.5447 14.4C78.078 14.88 77.8447 15.5467 77.8447 16.4C77.8447 17.2533 78.078 17.9333 78.5447 18.44C79.0247 18.9333 79.6047 19.18 80.2847 19.18C80.9647 19.18 81.538 18.9333 82.0047 18.44C82.4847 17.9467 82.7247 17.2733 82.7247 16.42ZM90.3389 9.68C89.7389 9.68 89.2456 9.50667 88.8589 9.16C88.4856 8.8 88.2989 8.36 88.2989 7.84C88.2989 7.30667 88.4856 6.86667 88.8589 6.52C89.2456 6.16 89.7389 5.98 90.3389 5.98C90.9256 5.98 91.4056 6.16 91.7789 6.52C92.1656 6.86667 92.3589 7.30667 92.3589 7.84C92.3589 8.36 92.1656 8.8 91.7789 9.16C91.4056 9.50667 90.9256 9.68 90.3389 9.68ZM92.0389 10.84V22H88.6189V10.84H92.0389Z" fill="#160647"/>
<path d="M71.0002 22.16C70.4002 22.16 69.9068 21.9867 69.5202 21.64C69.1468 21.28 68.9602 20.84 68.9602 20.32C68.9602 19.7867 69.1468 19.34 69.5202 18.98C69.9068 18.62 70.4002 18.44 71.0002 18.44C71.5868 18.44 72.0668 18.62 72.4402 18.98C72.8268 19.34 73.0202 19.7867 73.0202 20.32C73.0202 20.84 72.8268 21.28 72.4402 21.64C72.0668 21.9867 71.5868 22.16 71.0002 22.16Z" fill="#47BEB9"/>
<path d="M0 12C0 9.23858 2.23858 7 5 7H13C15.7614 7 18 9.23858 18 12V20C18 22.7614 15.7614 25 13 25H5C2.23858 25 0 22.7614 0 20V12Z" fill="url(#paint0_linear_18_8)"/>
<path d="M11.792 16.24C12.4427 16.3787 12.9653 16.704 13.36 17.216C13.7547 17.7173 13.952 18.2933 13.952 18.944C13.952 19.8827 13.6213 20.6293 12.96 21.184C12.3093 21.728 11.3973 22 10.224 22H4.992V10.768H10.048C11.1893 10.768 12.08 11.0293 12.72 11.552C13.3707 12.0747 13.696 12.784 13.696 13.68C13.696 14.3413 13.52 14.8907 13.168 15.328C12.8267 15.7653 12.368 16.0693 11.792 16.24ZM7.728 15.312H9.52C9.968 15.312 10.3093 15.216 10.544 15.024C10.7893 14.8213 10.912 14.528 10.912 14.144C10.912 13.76 10.7893 13.4667 10.544 13.264C10.3093 13.0613 9.968 12.96 9.52 12.96H7.728V15.312ZM9.744 19.792C10.2027 19.792 10.5547 19.6907 10.8 19.488C11.056 19.2747 11.184 18.9707 11.184 18.576C11.184 18.1813 11.0507 17.872 10.784 17.648C10.528 17.424 10.1707 17.312 9.712 17.312H7.728V19.792H9.744Z" fill="white"/>
<defs>
<linearGradient id="paint0_linear_18_8" x1="9" y1="7" x2="9" y2="25" gradientUnits="userSpaceOnUse">
<stop stop-color="#160647"/>
<stop offset="1" stop-color="#47BE95" stop-opacity="0.4"/>
</linearGradient>
</defs>
</svg>
